<svg xmlns="http://www.w3.org/2000/svg" width="359.522" height="92.209" viewBox="0 0 359.522 92.209">
  <g id="Logo" transform="translate(-54.787 -650.268)">
    <path id="Path_1108" data-name="Path 1108" d="M129.856,695.729q0-21.484,0-42.968c0-2.074.373-2.458,2.432-2.457,9.135.008,18.269-.041,27.4.063a31.8,31.8,0,0,1,13.976,3.236,19.544,19.544,0,0,1,10.279,11.519,29.49,29.49,0,0,1,.809,16.117A18.249,18.249,0,0,1,175.7,693.5c-.928.536-1.406.895-.145,1.624,7.376,4.27,10.559,10.982,11.023,19.209.276,4.93-.23,9.768-2.528,14.234-3.576,6.939-9.647,10.439-17.009,12.092a32.937,32.937,0,0,1-7.259.72q-13.7,0-27.4,0c-2.169,0-2.513-.309-2.514-2.53Q129.841,717.292,129.856,695.729ZM145,714.426c0,4.1.016,8.2-.012,12.3-.006.987.2,1.536,1.37,1.521,4.566-.059,9.138.086,13.7-.1a10.971,10.971,0,0,0,9.728-5.981,16.309,16.309,0,0,0,1.652-9.364c-.653-7.838-5.433-12.208-13.284-12.23q-5.529-.014-11.055,0c-2.093,0-2.1,0-2.1,2.024Q145,708.51,145,714.426ZM145,676.184h.016c0,3.686.047,7.373-.027,11.057-.023,1.218.35,1.658,1.574,1.641,3.789-.053,7.581.062,11.368-.047,7.976-.23,12.177-4.125,12.783-11.705.645-8.054-4.237-13.539-12.31-13.726-3.995-.092-7.994,0-11.991-.053-1.093-.014-1.445.4-1.431,1.465C145.023,668.6,145,672.4,145,676.184Z" transform="translate(42.166 0.018)" fill="#fefefe"/>
    <path id="Path_1109" data-name="Path 1109" d="M231.6,711.208c.628-2.883,1.188-5.435,1.738-7.99,2.521-11.708,5.057-23.413,7.529-35.133a2.157,2.157,0,0,1,2.536-2.035q4.512.133,9.03,0a2.245,2.245,0,0,1,2.675,2.068c2.978,13.731,6.028,27.444,9.06,41.164.12.54.262,1.076.4,1.641.848-.266.756-.94.865-1.448q4.4-20.526,8.777-41.059c.467-2.187.682-2.35,2.908-2.333,3.476.025,6.954.036,10.432.084,1.584.024,2.026.565,1.657,2.005q-7.972,31.121-15.937,62.244a2.418,2.418,0,0,1-2.82,2.154q-5.29-.173-10.587,0c-1.716.053-2.386-.7-2.746-2.246q-3.938-16.969-7.96-33.916c-.273-1.16-.554-2.321-.854-3.473-.1-.364-.009-.956-.593-.909-.455.036-.367.575-.44.9q-1.677,7.353-3.32,14.716c-1.712,7.637-3.442,15.27-5.108,22.918-.3,1.393-.9,2.04-2.4,2.007-3.633-.079-7.268-.066-10.9-.011a2.12,2.12,0,0,1-2.393-1.871q-4.809-19.08-9.684-38.147-2.9-11.382-5.808-22.761c-.9-3.495-.762-3.7,2.853-3.693,2.958,0,5.917,0,8.875,0,2.188,0,2.377.141,2.813,2.229q4.224,20.249,8.447,40.5A4.226,4.226,0,0,0,231.6,711.208Z" transform="translate(85.608 8.862)" fill="#fefefe"/>
    <path id="Path_1110" data-name="Path 1110" d="M108.371,740.183a2.207,2.207,0,0,1-2.293,1.221q-24.532-.035-49.065-.022c-1.958,0-2.225-.333-2.225-2.642q0-40.729,0-81.46c0-1.454,0-2.906.011-4.36.022-2.3.334-2.611,2.619-2.611q24.222,0,48.443-.02a3.041,3.041,0,0,1,2.486.985l.022.75c-.023,2.8-.061,5.6-.069,8.4-.008,2.664-.25,2.944-2.922,2.946-11.157.008-22.314.037-33.471-.036-1.624-.011-1.99.494-1.974,2.032q.112,10.9-.006,21.794c-.017,1.6.464,2.024,2.027,2.005,6.953-.077,13.907-.035,20.861-.033,2.138,0,2.469.323,2.474,2.4q.007,4.048,0,8.1c0,2.113-.344,2.469-2.418,2.47q-10.432,0-20.863-.008c-2.032,0-2.043.011-2.044,2.094-.008,7.421.039,14.843-.042,22.262-.017,1.6.461,1.991,2.026,1.982,11.208-.067,22.419-.039,33.629-.031,2.5,0,2.714.253,2.721,2.8.008,2.9.042,5.809.064,8.716A.285.285,0,0,1,108.371,740.183Z" transform="translate(0 0.012)" fill="#fefefe"/>
    <path id="Path_1111" data-name="Path 1111" d="M204.716,705.017c-5.5,0-11.007.042-16.51-.028-1.367-.017-1.807.373-1.716,1.754.192,2.9.153,5.842,1.621,8.476,4.271,7.669,15.609,7.871,20.377.381,1.963-3.084,1.963-3.083,5.493-2.188q3.312.841,6.626,1.676c1.688.429,1.988.992,1.457,2.722a23.014,23.014,0,0,1-20.257,15.979c-4.863.419-9.68.286-14.279-1.462-7.66-2.911-12.283-8.508-14.255-16.443a79.439,79.439,0,0,1-1.774-23.193c.211-4.36.454-8.738,2.166-12.823,3.668-8.754,10.571-13.159,19.757-14.254a36.99,36.99,0,0,1,9.317.137c10.818,1.455,17.173,8.174,19.461,18.266,1.44,6.356,1.4,12.876,1.452,19.364.011,1.437-.957,1.644-2.113,1.643Q213.127,705.007,204.716,705.017Zm-7.359-10.857c3.217,0,6.436-.009,9.655.006.831,0,1.415-.141,1.363-1.184a27.378,27.378,0,0,0-1.042-7.53,9.522,9.522,0,0,0-8.827-6.951c-4.343-.345-7.874,1.032-10.111,4.958-1.737,3.05-1.734,6.458-1.866,9.822-.036.918.7.878,1.329.878Q192.608,694.163,197.358,694.16Z" transform="translate(65.476 8.49)" fill="#fefefe"/>
    <path id="Path_1112" data-name="Path 1112" d="M270.44,706.391c0-7.721-.031-14.363.026-21.005.011-1.288-.362-1.766-1.668-1.682-1.448.094-2.9.033-4.359.006-1.632-.03-2.174-.542-2.19-2.121-.025-2.489.008-4.982-.009-7.471a1.66,1.66,0,0,1,1.893-1.913c1.452,0,2.911-.073,4.357.028s2.019-.354,1.988-1.9c-.086-4.3-.023-8.613-.009-12.92.006-1.921.318-2.239,2.288-2.252q4.983-.033,9.964-.017c1.88.006,2.279.417,2.283,2.279.009,4.307.052,8.616-.008,12.922-.02,1.377.358,1.946,1.838,1.894,2.9-.1,5.811-.04,8.716-.025,1.782.009,2.2.43,2.216,2.2.014,2.388.016,4.774-.011,7.162-.019,1.656-.479,2.125-2.144,2.141-3.01.028-6.021.053-9.028-.014-1.226-.027-1.605.389-1.6,1.612.048,10.638.041,21.275.053,31.914a12.222,12.222,0,0,0,.064,1.242c.523,5.082,2.539,7.01,7.621,7.018,4.273.006,4.054.123,4.037,4.173-.008,2.283-.02,4.567,0,6.85.009,1.14-.379,2.005-1.618,2.029-5.133.1-10.292.331-15.292-1.184-5.924-1.793-8.849-5.486-9.234-11.81C270.2,718.807,270.549,712.056,270.44,706.391Z" transform="translate(116.531 2.735)" fill="#fefefe"/>
    <path id="Path_1113" data-name="Path 1113" d="M89.1,652.036l-.022-.75c.251-1.02,1.074-.984,1.855-.985,3.84-.008,7.682.052,11.521-.031a2.884,2.884,0,0,1,2.894,1.834q7.379,13.915,14.836,27.785c.22.411.484.8.726,1.193,1.93,4.384,4.651,8.343,6.828,12.6.3.589.315,1.443,1.121,1.732l-.247.389c-2.625,4.915-5.374,9.765-7.737,14.818-2.13,3.248-3.734,6.786-5.569,10.195-3.383,6.283-6.692,12.606-9.993,18.931a2.725,2.725,0,0,1-2.786,1.719c-3.889-.1-7.782-.042-11.674-.053-.85,0-1.737.014-1.751-1.212a.288.288,0,0,0-.009-.267c.192-.308.409-.6.57-.923Q100.139,718.2,110.624,697.4a3.007,3.007,0,0,0,0-3.045c-5.366-10.567-10.652-21.174-16.03-31.734C92.8,659.079,91.179,655.437,89.1,652.036Z" transform="translate(19.264)" fill="#e91e27"/>
    <path id="Path_1114" data-name="Path 1114" d="M109.443,694.24c2.363-5.052,5.112-9.9,7.737-14.818,2.594,5.071,5.21,10.131,7.777,15.214q7.114,14.084,14.184,28.189c.82,1.63.534,2.169-1.282,2.18-3.839.025-7.677-.041-11.515.036a2.679,2.679,0,0,1-2.791-1.718c-2.938-6.117-5.92-12.213-8.886-18.317Q112.053,699.623,109.443,694.24Z" transform="translate(30.702 16.376)" fill="#fefefe"/>
    <path id="Path_1115" data-name="Path 1115" d="M117.414,695.4c-.806-.289-.82-1.143-1.121-1.732-2.177-4.254-4.9-8.213-6.828-12.6,4.627-9.516,9.286-19.015,13.852-28.561a3.356,3.356,0,0,1,3.592-2.233c3.578.134,7.164.026,10.746.047,2,.011,2.341.553,1.431,2.361q-8.841,17.581-17.726,35.139C120.074,690.368,118.935,692.987,117.414,695.4Z" transform="translate(30.714 0.005)" fill="#fefefe"/>
  </g>
</svg>
