<svg xmlns="http://www.w3.org/2000/svg" width="28.118" height="28.118" viewBox="0 0 28.118 28.118">
  <path id="Path_13182" data-name="Path 13182" d="M-201.342,62.671a14,14,0,0,0,.782-4.625,14.012,14.012,0,0,0-.782-4.626,1.175,1.175,0,0,0-.045-.126,14.084,14.084,0,0,0-13.232-9.307,14.083,14.083,0,0,0-13.231,9.307.982.982,0,0,0-.045.126,14,14,0,0,0-.783,4.626,13.989,13.989,0,0,0,.783,4.625.966.966,0,0,0,.045.128,14.083,14.083,0,0,0,13.231,9.307A14.084,14.084,0,0,0-201.387,62.8a1.2,1.2,0,0,0,.045-.128Zm-13.277,7.419c-.535,0-1.4-.969-2.12-3.134a22.078,22.078,0,0,1-.83-3.552h5.9a22.082,22.082,0,0,1-.83,3.552c-.722,2.164-1.585,3.134-2.121,3.134Zm-3.194-8.7c-.1-1.074-.149-2.2-.149-3.343s.051-2.268.149-3.343h6.389c.1,1.074.149,2.2.149,3.343s-.051,2.268-.149,3.343Zm-8.85-3.343a12.016,12.016,0,0,1,.472-3.343h6.355c-.094,1.1-.142,2.22-.142,3.343s.047,2.246.142,3.343h-6.355a12.013,12.013,0,0,1-.472-3.343ZM-214.619,46c.536,0,1.4.969,2.121,3.134a22.09,22.09,0,0,1,.83,3.552h-5.9a22.022,22.022,0,0,1,.83-3.552c.722-2.164,1.585-3.134,2.12-3.134Zm5.217,8.7h6.355a12.015,12.015,0,0,1,.472,3.343,12.012,12.012,0,0,1-.472,3.343H-209.4c.094-1.1.142-2.22.142-3.343s-.047-2.246-.142-3.343Zm5.567-2.015h-5.8a19.335,19.335,0,0,0-1.836-6.267,12.093,12.093,0,0,1,7.635,6.267Zm-13.932-6.267a19.351,19.351,0,0,0-1.837,6.267h-5.8a12.1,12.1,0,0,1,7.635-6.267ZM-225.4,63.4h5.8a19.352,19.352,0,0,0,1.837,6.267A12.094,12.094,0,0,1-225.4,63.4Zm13.932,6.267a19.336,19.336,0,0,0,1.836-6.267h5.8a12.092,12.092,0,0,1-7.635,6.267Zm0,0" transform="translate(228.678 -43.987)" fill="#416cb3"/>
</svg>
